<svg width="86" height="85" viewBox="0 0 86 85" fill="none" xmlns="http://www.w3.org/2000/svg">
<g id="&#240;&#159;&#166;&#134; icon &#34;file type vscode&#34;">
<path id="Vector" d="M82.4194 8.99827L64.8264 0.528246C63.8328 0.0492083 62.7149 -0.108874 61.6275 0.0759117C60.5401 0.260698 59.5371 0.779199 58.7576 1.55954L1.16698 54.0639C0.468234 54.6979 0.0499696 55.5836 0.00419361 56.526C-0.0415824 57.4684 0.288879 58.3904 0.922885 59.0892C0.999164 59.1715 1.07544 59.2509 1.15782 59.3241L5.85966 63.5957C6.47405 64.1549 7.26489 64.4812 8.09483 64.518C8.92477 64.5548 9.74138 64.2997 10.4028 63.7971L79.7709 11.1951C80.2949 10.7975 80.9194 10.5541 81.5742 10.4922C82.2291 10.4303 82.8881 10.5524 83.4773 10.8447C84.0665 11.1371 84.5624 11.5881 84.9091 12.147C85.2559 12.7059 85.4397 13.3505 85.44 14.0083V13.8038C85.4399 12.7997 85.1564 11.816 84.622 10.9658C84.0877 10.1157 83.3242 9.4337 82.4194 8.99827Z" fill="#0065A9"/>
<path id="Vector_2" d="M82.4194 75.9407L64.8264 84.4138C63.8325 84.8915 62.7149 85.0488 61.6278 84.8641C60.5408 84.6793 59.5378 84.1616 58.7576 83.3825L1.16698 30.8751C0.468234 30.241 0.0499696 29.3554 0.00419361 28.413C-0.0415824 27.4706 0.288879 26.5486 0.922885 25.8498C0.999164 25.7674 1.07544 25.6881 1.15782 25.6149L5.85966 21.3433C6.47468 20.7817 7.26733 20.454 8.09931 20.4172C8.9313 20.3804 9.7498 20.6369 10.412 21.1419L79.7709 73.7439C80.2949 74.1415 80.9194 74.3849 81.5742 74.4468C82.2291 74.5087 82.8881 74.3866 83.4773 74.0942C84.0665 73.8019 84.5624 73.3508 84.9091 72.7919C85.2559 72.233 85.4397 71.5884 85.44 70.9307V71.1504C85.4367 72.1518 85.1517 73.1322 84.6175 73.9793C84.0834 74.8264 83.3216 75.5061 82.4194 75.9407Z" fill="#007ACC"/>
<path id="Vector_3" d="M64.8264 84.4138C63.8325 84.8915 62.7149 85.0488 61.6278 84.8641C60.5408 84.6793 59.5378 84.1617 58.7576 83.3825C59.1958 83.8149 59.7518 84.1084 60.3561 84.2262C60.9603 84.344 61.5859 84.2809 62.1544 84.0447C62.7229 83.8085 63.2091 83.4097 63.5519 82.8984C63.8948 82.3871 64.0792 81.786 64.0819 81.1704V3.76858C64.0824 3.15007 63.8993 2.54533 63.5559 2.03096C63.2124 1.51659 62.724 1.11573 62.1525 0.879168C61.581 0.642605 60.9522 0.58098 60.3457 0.702099C59.7391 0.823218 59.1822 1.12163 58.7454 1.55954C59.5251 0.779482 60.5278 0.260948 61.615 0.0756484C62.7022 -0.109651 63.8201 0.0474396 64.8142 0.525196L82.4041 8.98301C83.3118 9.41627 84.0784 10.0974 84.6156 10.9477C85.1528 11.798 85.4386 12.7828 85.44 13.7886V71.1504C85.4402 72.1554 85.1565 73.14 84.6216 73.9907C84.0866 74.8415 83.3222 75.5238 82.4163 75.959L64.8264 84.4138Z" fill="#1F9CF0"/>
</g>
</svg>
